HIERARCHY
ROOT RootJoint
{
    OFFSET   0.000000   0.000000   0.000000
    CHANNELS 6 Xposition Yposition Zposition Xrotation Yrotation Zrotation
    JOINT pelvis_lowerback
    {
        OFFSET   0.000000   0.093605   0.000000
        CHANNELS 3 Xrotation Yrotation Zrotation
        JOINT lowerback_torso
        {
            OFFSET   0.000000   0.100000   0.000000
            CHANNELS 3 Xrotation Yrotation Zrotation
            JOINT torso_head
            {
                OFFSET   0.000000   0.282350   0.000000
                CHANNELS 3 Xrotation Yrotation Zrotation
                End Site
                {
                    OFFSET   0.000000   0.192650   0.000000
                }
            }
            JOINT rTorso_Clavicle
            {
                OFFSET  -0.001000   0.157500   0.000000
                CHANNELS 3 Xrotation Yrotation Zrotation
                JOINT rShoulder
                {
                    OFFSET  -0.117647   0.000000   0.000000
                    CHANNELS 3 Xrotation Yrotation Zrotation
                    JOINT rElbow
                    {
                        OFFSET  -0.245000   0.000000   0.000000
                        CHANNELS 3 Xrotation Yrotation Zrotation
                        JOINT rWrist
                        {
                            OFFSET  -0.240000   0.000000   0.000000
                            CHANNELS 3 Xrotation Yrotation Zrotation
                            End Site
                            {
                                OFFSET  -0.116353  -0.002500   0.000000
                            }
                        }
                    }
                }
            }
            JOINT lTorso_Clavicle
            {
                OFFSET   0.001000   0.157500   0.000000
                CHANNELS 3 Xrotation Yrotation Zrotation
                JOINT lShoulder
                {
                    OFFSET   0.117647   0.000000   0.000000
                    CHANNELS 3 Xrotation Yrotation Zrotation
                    JOINT lElbow
                    {
                        OFFSET   0.245000   0.000000   0.000000
                        CHANNELS 3 Xrotation Yrotation Zrotation
                        JOINT lWrist
                        {
                            OFFSET   0.240000   0.000000   0.000000
                            CHANNELS 3 Xrotation Yrotation Zrotation
                            End Site
                            {
                                OFFSET   0.116353  -0.002500   0.000000
                            }
                        }
                    }
                }
            }
        }
    }
    JOINT rHip
    {
        OFFSET  -0.100000  -0.051395   0.000000
        CHANNELS 3 Xrotation Yrotation Zrotation
        JOINT rKnee
        {
            OFFSET   0.000000  -0.410000   0.000000
            CHANNELS 3 Xrotation Yrotation Zrotation
            JOINT rAnkle
            {
                OFFSET   0.000000  -0.390000   0.000000
                CHANNELS 3 Xrotation Yrotation Zrotation
                JOINT rToeJoint
                {
                    OFFSET   0.000000  -0.050000   0.130000
                    CHANNELS 3 Xrotation Yrotation Zrotation
                    End Site
                    {
                        OFFSET  -0.010000   0.002000   0.060000
                    }
                }
            }
        }
    }
    JOINT lHip
    {
        OFFSET   0.100000  -0.051395   0.000000
        CHANNELS 3 Xrotation Yrotation Zrotation
        JOINT lKnee
        {
            OFFSET   0.000000  -0.410000   0.000000
            CHANNELS 3 Xrotation Yrotation Zrotation
            JOINT lAnkle
            {
                OFFSET   0.000000  -0.390000   0.000000
                CHANNELS 3 Xrotation Yrotation Zrotation
                JOINT lToeJoint
                {
                    OFFSET   0.000000  -0.050000   0.130000
                    CHANNELS 3 Xrotation Yrotation Zrotation
                    End Site
                    {
                        OFFSET   0.010000   0.002000   0.060000
                    }
                }
            }
        }
    }
}
MOTION
Frames: 11
Frame Time:   0.008333
 -2.329709   0.914898   4.129654  21.822534   9.256182  -2.757742  11.449187   2.160130   1.982973  -8.739802  -3.461950  -3.254032  -3.131534   0.089633  -5.251446 -17.989914  29.478929 -25.354100 -57.539269  28.656915   4.454411   0.098833  49.128432  -0.042931   0.721398   2.000222 -15.558079 -15.333031 -27.620638  25.305512 -45.370361 -29.837366  -2.287825   0.085148 -42.043436   0.029719  -2.711546  -8.772170  17.341949 -35.806372  -6.894768  -9.519105  50.830019  -0.016278  -0.042332  -4.926403 -12.309418  10.246695  -5.340461  -0.019420   0.020998 -39.645996   0.401835   3.945859  50.082970   0.025475   0.035935  13.413491  -0.417472  -5.709603 -44.297217  -0.009457  -0.002052
 -2.328334   0.930159   4.143998  21.801369   9.277340  -3.743197   9.413353   2.205530   3.062857  -8.338933  -3.585280  -3.174094  -2.222578  -0.000257  -5.571934 -17.211962  29.002411 -25.743020 -58.245543  28.706479   4.545117   0.102641  47.612232  -0.039979   0.882270   2.230127 -15.607601 -14.737909 -26.893977  25.558463 -45.484470 -29.885195  -2.291246   0.082097 -40.779567   0.023713  -2.618180  -8.950171  17.261823 -34.059875  -7.344690  -8.048335  49.304514  -0.011781  -0.042260  -2.598250 -11.983790  10.963430  -4.141732  -0.018388   0.021860 -37.469577  -0.082513   4.822694  46.613593   0.021119   0.027805  17.061593  -0.464704  -6.271354 -42.549373  -0.004941   0.007243
 -2.326997   0.945077   4.157888  21.791538   9.430036  -4.767381   7.512547   2.181357   4.169081  -7.941943  -3.732183  -2.991975  -1.310811  -0.108011  -5.944766 -16.483387  28.531195 -26.132294 -58.867223  28.697136   4.584332   0.103949  46.129695  -0.037875   0.965724   2.132788 -15.660640 -14.185604 -26.174139  25.803970 -45.567665 -29.827609  -2.288705   0.077325 -39.555188   0.016600  -2.575740  -8.923622  17.126493 -32.422503  -7.749270  -6.571619  48.051696  -0.008789  -0.041561  -0.428912 -11.650879  11.620472  -3.065265  -0.016283   0.022755 -35.397192  -0.498079   5.735728  43.142687   0.016162   0.017175  20.776080  -0.517301  -6.808156 -39.911579   0.000612   0.022199
 -2.325647   0.959555   4.171269  21.789711   9.697799  -5.776877   5.758282   2.105343   5.259638  -7.549398  -3.891048  -2.762608  -0.455079  -0.251853  -6.310016 -15.821730  28.073381 -26.492431 -59.439256  28.671539   4.598769   0.102913  44.724279  -0.037030   1.007508   1.888443 -15.731257 -13.704061 -25.465337  26.021008 -45.653972 -29.747962  -2.289710   0.071787 -38.398099   0.009603  -2.563054  -8.800483  16.948171 -30.878438  -8.098707  -5.146049  46.943825  -0.006832  -0.040595   1.591133 -11.316800  12.221407  -2.083355  -0.013680   0.023469 -33.482885  -0.842170   6.632846  39.681870   0.011465   0.005332  24.514100  -0.542894  -7.304498 -36.395539   0.007821   0.042527
 -2.324221   0.973461   4.184126  21.780449  10.025075  -6.744249   4.156442   2.002061   6.312790  -7.147770  -4.047203  -2.516643   0.354675  -0.448678  -6.668727 -15.233296  27.627337 -26.820732 -59.979628  28.633174   4.603357   0.099730  43.406016  -0.036707   1.032582   1.600928 -15.820257 -13.322574 -24.748915  26.255054 -45.766809 -29.659378  -2.300946   0.066463 -37.310658   0.003258  -2.565385  -8.632283  16.707396 -29.424401  -8.390808  -3.790635  45.941328  -0.005456  -0.039142   3.471544 -10.985697  12.769777  -1.186921  -0.011024   0.023612 -31.726497  -1.131452   7.490440  36.355532   0.007894  -0.005147  28.266211  -0.615080  -7.802579 -31.763315   0.021695   0.066127
 -2.322657   0.986774   4.196505  21.759012  10.395148  -7.660351   2.680687   1.895784   7.324667  -6.769224  -4.176555  -2.252434   1.104625  -0.585287  -6.989570 -14.668638  27.218188 -27.120812 -60.469323  28.610764   4.601966   0.095018  42.167843  -0.037049   1.045936   1.284649 -15.922302 -12.937211 -24.110248  26.409944 -45.838880 -29.572593  -2.272245   0.060450 -36.294958  -0.002462  -2.567545  -8.466388  16.573602 -28.051112  -8.633638  -2.517482  45.019616  -0.004501  -0.037312   5.221970 -10.660584  13.269881  -0.366985  -0.008493   0.023202 -30.128706  -1.373731   8.267646  33.204772   0.004609  -0.013385  31.765316  -0.742724  -8.268733 -26.954388   0.040563   0.080817
 -2.320999   0.999483   4.208400  21.716987  10.790755  -8.518829   1.334496   1.786199   8.285909  -6.388079  -4.288614  -1.986908   1.800995  -0.726274  -7.288832 -14.151218  26.829971 -27.394292 -60.930992  28.590170   4.606734   0.089065  41.013535  -0.037302   1.056757   0.979988 -16.022497 -12.591083 -23.497693  26.552772 -45.914893 -29.486272  -2.260857   0.054453 -35.346274  -0.007298  -2.570198  -8.303732  16.424640 -26.755490  -8.831326  -1.323471  44.169913  -0.003796  -0.035207   6.851618 -10.343965  13.725786   0.383082  -0.006240   0.022355 -28.676031  -1.578487   8.971462  30.255489   0.001880  -0.019528  35.028955  -0.888378  -8.697457 -22.146719   0.060028   0.087159
 -2.318958   1.011426   4.218730  21.823315  10.913944  -8.222820   0.070365   1.835146   7.745833  -6.066659  -4.435280  -1.664940   2.401371  -0.756627  -7.195118 -13.836872  26.420803 -27.460293 -61.106230  28.610775   4.657522   0.078655  39.953798  -0.032783   1.032538   0.561255 -16.320976 -12.298181 -23.068530  26.425361 -45.909006 -29.568973  -2.174673   0.048666 -34.392036  -0.008210  -2.554496  -8.316223  16.483103 -26.286966  -8.578229  -1.475764  43.448242  -0.003215  -0.029797   8.861634 -10.000825  14.034314   1.155027  -0.003789   0.018759 -28.316458  -1.066379   8.549788  30.042626   0.001065  -0.016186  33.582326  -0.521855  -9.341145 -17.842729   0.086834   0.088453
 -2.317007   1.022889   4.228333  21.821524  10.882235  -7.669551  -0.994247   1.930509   7.048750  -5.683527  -4.548977  -1.515041   2.950752  -0.776448  -7.101387 -13.505499  26.051718 -27.512467 -61.257654  28.640705   4.733928   0.066912  38.976764  -0.026739   1.018708   0.192685 -16.573727 -12.001388 -22.651359  26.207810 -45.896134 -29.610210  -2.135286   0.041844 -33.500463  -0.007647  -2.537686  -8.351019  16.596099 -25.946609  -8.273060  -1.889264  42.622317  -0.002316  -0.024186  10.738585  -9.680026  14.305225   1.908324  -0.002852   0.015029 -28.040253  -0.523818   7.988031  30.290335   0.001200  -0.012661  32.220689  -0.168205  -9.938367 -14.158820   0.097859   0.079821
 -2.315317   1.033864   4.237358  21.746829  10.745110  -7.046027  -1.903120   2.044816   6.332238  -5.244299  -4.643415  -1.454275   3.462715  -0.793883  -7.017609 -13.166223  25.720481 -27.566165 -61.390548  28.676339   4.825775   0.055258  38.069413  -0.020239   1.013025  -0.130300 -16.759493 -11.700393 -22.245685  25.941947 -45.873392 -29.611823  -2.131061   0.034685 -32.658183  -0.006458  -2.535548  -8.343186  16.678437 -25.708113  -7.976148  -2.354160  41.774513  -0.001128  -0.018833  12.484657  -9.376454  14.546169   2.593512  -0.002885   0.011778 -27.774361  -0.017975   7.470343  30.618771   0.001109  -0.010049  30.960375   0.175098 -10.487764 -10.776451   0.099244   0.068196
 -2.313914   1.044320   4.245882  21.620284  10.550507  -6.404903  -2.675059   2.162638   5.620140  -4.764305  -4.731743  -1.446495   3.941694  -0.810293  -6.941031 -12.829914  25.419297 -27.619957 -61.508552  28.714597   4.924898   0.044444  37.225199  -0.013982   1.013084  -0.419986 -16.889915 -11.396168 -21.859857  25.650685 -45.843325 -29.587832  -2.153790   0.027638 -31.863518  -0.005061  -2.548127  -8.289937  16.717641 -25.555104  -7.699502  -2.820356  40.942415   0.000118  -0.014088  14.109805  -9.088204  14.761828   3.214926  -0.003343   0.009184 -27.522480   0.442869   7.025606  30.948016   0.000780  -0.008106  29.789235   0.508014 -10.992918  -7.672384   0.094689   0.056690
